<svg width="179" height="46" viewBox="0 0 179 46" fill="none" xmlns="http://www.w3.org/2000/svg">
<path d="M164.126 6.50731C165.036 5.77398 166.19 5.34131 167.437 5.34131C170.404 5.34131 172.812 7.80531 172.812 10.8413C172.812 12.1466 172.368 13.342 171.63 14.288" stroke="white" stroke-width="0.75" stroke-miterlimit="10"/>
<path d="M163.56 3.80862C166.563 2.07062 170.447 2.51062 173.006 5.13596C175.651 7.84196 176.023 11.9853 174.131 15.102" stroke="white" stroke-width="1.4" stroke-miterlimit="10" stroke-linecap="round" stroke-linejoin="round" stroke-dasharray="1 2.5"/>
<path d="M0.971436 45V1H163.474C163.474 9.10333 169.888 15.6667 177.808 15.6667V45H0.971436Z" stroke="white" stroke-width="1.4" stroke-miterlimit="10"/>
<path d="M5.2641 40.7074V5.29272H157.654C157.654 11.8149 165.181 20.8537 172.679 20.8537V40.7074H5.2641Z" fill="white"/>
<path d="M174.963 17.4414C167.244 17.4414 160.987 11.0394 160.987 3.14136" stroke="white" stroke-width="1.4" stroke-miterlimit="10" stroke-linecap="round" stroke-dasharray="1 2.5"/>
</svg>
